<?xml version="1.0" encoding="UTF-8" standalone="no"?>
<!DOCTYPE svg PUBLIC "-//W3C//DTD SVG 1.1//EN"
 "http://www.w3.org/Graphics/SVG/1.1/DTD/svg11.dtd">
<!-- Generated by graphviz version 2.40.1 (20161225.0304)
 -->
<!-- Title: dependencies Pages: 1 -->
<svg width="1143pt" height="360pt"
 viewBox="0.00 0.00 1143.00 360.00" xmlns="http://www.w3.org/2000/svg" xmlns:xlink="http://www.w3.org/1999/xlink">
<g id="graph0" class="graph" transform="scale(1 1) rotate(0) translate(4 356)">
<title>dependencies</title>
<polygon fill="#ffffff" stroke="transparent" points="-4,4 -4,-356 1139,-356 1139,4 -4,4"/>
<text text-anchor="start" x="546.5091" y="-42.4" font-family="sans-serif" font-weight="bold" font-size="14.00" fill="#000000">Legend</text>
<polygon fill="#ffffb3" stroke="transparent" points="333.5,-10 333.5,-30 353.5,-30 353.5,-10 333.5,-10"/>
<text text-anchor="start" x="357.129" y="-15.4" font-family="sans-serif" font-size="14.00" fill="#000000"> &#160;Declarations</text>
<polygon fill="#8dd3c7" stroke="transparent" points="446.5,-10 446.5,-30 466.5,-30 466.5,-10 446.5,-10"/>
<text text-anchor="start" x="470.2251" y="-15.4" font-family="sans-serif" font-size="14.00" fill="#000000"> &#160;Module</text>
<polygon fill="#80b1d3" stroke="transparent" points="532.5,-10 532.5,-30 552.5,-30 552.5,-10 532.5,-10"/>
<text text-anchor="start" x="556.2812" y="-15.4" font-family="sans-serif" font-size="14.00" fill="#000000"> &#160;Bootstrap</text>
<polygon fill="#fdb462" stroke="transparent" points="629.5,-10 629.5,-30 649.5,-30 649.5,-10 629.5,-10"/>
<text text-anchor="start" x="653.1732" y="-15.4" font-family="sans-serif" font-size="14.00" fill="#000000"> &#160;Providers</text>
<polygon fill="#fb8072" stroke="transparent" points="725.5,-10 725.5,-30 745.5,-30 745.5,-10 725.5,-10"/>
<text text-anchor="start" x="749.2258" y="-15.4" font-family="sans-serif" font-size="14.00" fill="#000000"> &#160;Exports</text>
<g id="clust1" class="cluster">
<title>cluster_AppModule</title>
<polygon fill="none" stroke="#000000" stroke-dasharray="1,5" points="301,-146 301,-344 723,-344 723,-146 301,-146"/>
</g>
<g id="clust2" class="cluster">
<title>cluster_AppModule_declarations</title>
<polygon fill="none" stroke="#000000" points="593,-154 593,-206 715,-206 715,-154 593,-154"/>
</g>
<g id="clust4" class="cluster">
<title>cluster_AppModule_imports</title>
<polygon fill="none" stroke="#000000" points="469,-154 469,-206 585,-206 585,-154 469,-154"/>
</g>
<g id="clust6" class="cluster">
<title>cluster_AppModule_bootstrap</title>
<polygon fill="none" stroke="#000000" points="465,-284 465,-336 589,-336 589,-284 465,-284"/>
</g>
<g id="clust7" class="cluster">
<title>cluster_AppModule_providers</title>
<polygon fill="none" stroke="#000000" points="309,-154 309,-206 461,-206 461,-154 309,-154"/>
</g>
<g id="clust8" class="cluster">
<title>cluster_SnotifyModule</title>
<polygon fill="none" stroke="#000000" stroke-dasharray="1,5" points="8,-70 8,-138 1127,-138 1127,-70 8,-70"/>
</g>
<g id="clust9" class="cluster">
<title>cluster_SnotifyModule_declarations</title>
<polygon fill="none" stroke="#000000" points="370,-78 370,-130 1119,-130 1119,-78 370,-78"/>
</g>
<g id="clust17" class="cluster">
<title>cluster_SnotifyModule_exports</title>
<polygon fill="none" stroke="#000000" points="16,-78 16,-130 362,-130 362,-78 16,-78"/>
</g>
<!-- AppComponent -->
<g id="node1" class="node">
<title>AppComponent</title>
<polygon fill="#ffffb3" stroke="#000000" points="706.9399,-198 601.0601,-198 601.0601,-162 706.9399,-162 706.9399,-198"/>
<text text-anchor="middle" x="654" y="-175.8" font-family="Times,serif" font-size="14.00" fill="#000000">AppComponent</text>
</g>
<!-- AppModule -->
<g id="node2" class="node">
<title>AppModule</title>
<polygon fill="#8dd3c7" stroke="#000000" points="568.6571,-263 565.6571,-267 544.6571,-267 541.6571,-263 485.3429,-263 485.3429,-227 568.6571,-227 568.6571,-263"/>
<text text-anchor="middle" x="527" y="-240.8" font-family="Times,serif" font-size="14.00" fill="#000000">AppModule</text>
</g>
<!-- AppComponent&#45;&gt;AppModule -->
<g id="edge1" class="edge">
<title>AppComponent&#45;&gt;AppModule</title>
<path fill="none" stroke="#000000" d="M654,-198.1061C654,-217.3391 654,-245 654,-245 654,-245 578.9365,-245 578.9365,-245"/>
<polygon fill="#000000" stroke="#000000" points="578.9366,-241.5001 568.9365,-245 578.9365,-248.5001 578.9366,-241.5001"/>
</g>
<!-- AppComponent  -->
<g id="node4" class="node">
<title>AppComponent </title>
<polygon fill="#80b1d3" stroke="#000000" points="581.439,-328 472.561,-328 472.561,-292 581.439,-292 581.439,-328"/>
<text text-anchor="middle" x="527" y="-305.8" font-family="Times,serif" font-size="14.00" fill="#000000">AppComponent </text>
</g>
<!-- AppModule&#45;&gt;AppComponent  -->
<g id="edge3" class="edge">
<title>AppModule&#45;&gt;AppComponent </title>
<path fill="none" stroke="#000000" stroke-dasharray="1,5" d="M527,-263.1061C527,-263.1061 527,-281.991 527,-281.991"/>
<polygon fill="#000000" stroke="#000000" points="523.5001,-281.9909 527,-291.991 530.5001,-281.991 523.5001,-281.9909"/>
</g>
<!-- SnotifyModule -->
<g id="node3" class="node">
<title>SnotifyModule</title>
<polygon fill="#8dd3c7" stroke="#000000" points="577.2745,-198 574.2745,-202 553.2745,-202 550.2745,-198 476.7255,-198 476.7255,-162 577.2745,-162 577.2745,-198"/>
<text text-anchor="middle" x="527" y="-175.8" font-family="Times,serif" font-size="14.00" fill="#000000">SnotifyModule</text>
</g>
<!-- SnotifyModule&#45;&gt;AppModule -->
<g id="edge2" class="edge">
<title>SnotifyModule&#45;&gt;AppModule</title>
<path fill="none" stroke="#000000" d="M527,-198.1061C527,-198.1061 527,-216.991 527,-216.991"/>
<polygon fill="#000000" stroke="#000000" points="523.5001,-216.9909 527,-226.991 530.5001,-216.991 523.5001,-216.9909"/>
</g>
<!-- SnotifyComponent  -->
<g id="node12" class="node">
<title>SnotifyComponent </title>
<polygon fill="#fb8072" stroke="#000000" points="354.0568,-122 227.9432,-122 227.9432,-86 354.0568,-86 354.0568,-122"/>
<text text-anchor="middle" x="291" y="-99.8" font-family="Times,serif" font-size="14.00" fill="#000000">SnotifyComponent </text>
</g>
<!-- SnotifyModule&#45;&gt;SnotifyComponent  -->
<g id="edge11" class="edge">
<title>SnotifyModule&#45;&gt;SnotifyComponent </title>
<path fill="none" stroke="#000000" stroke-dasharray="5,2" d="M514.4032,-161.68C514.4032,-153.2117 514.4032,-145 514.4032,-145 514.4032,-145 335.3003,-145 335.3003,-145 335.3003,-145 335.3003,-132.1025 335.3003,-132.1025"/>
<polygon fill="#000000" stroke="#000000" points="338.8004,-132.1025 335.3003,-122.1025 331.8004,-132.1026 338.8004,-132.1025"/>
</g>
<!-- TruncatePipe  -->
<g id="node13" class="node">
<title>TruncatePipe </title>
<polygon fill="#fb8072" stroke="#000000" points="210.1355,-122 115.8645,-122 115.8645,-86 210.1355,-86 210.1355,-122"/>
<text text-anchor="middle" x="163" y="-99.8" font-family="Times,serif" font-size="14.00" fill="#000000">TruncatePipe </text>
</g>
<!-- SnotifyModule&#45;&gt;TruncatePipe  -->
<g id="edge12" class="edge">
<title>SnotifyModule&#45;&gt;TruncatePipe </title>
<path fill="none" stroke="#000000" stroke-dasharray="5,2" d="M501.8065,-161.7985C501.8065,-155.972 501.8065,-151 501.8065,-151 501.8065,-151 163,-151 163,-151 163,-151 163,-132.037 163,-132.037"/>
<polygon fill="#000000" stroke="#000000" points="166.5001,-132.037 163,-122.037 159.5001,-132.037 166.5001,-132.037"/>
</g>
<!-- KeysPipe  -->
<g id="node14" class="node">
<title>KeysPipe </title>
<polygon fill="#fb8072" stroke="#000000" points="97.6538,-122 24.3462,-122 24.3462,-86 97.6538,-86 97.6538,-122"/>
<text text-anchor="middle" x="61" y="-99.8" font-family="Times,serif" font-size="14.00" fill="#000000">KeysPipe </text>
</g>
<!-- SnotifyModule&#45;&gt;KeysPipe  -->
<g id="edge13" class="edge">
<title>SnotifyModule&#45;&gt;KeysPipe </title>
<path fill="none" stroke="#000000" stroke-dasharray="5,2" d="M489.2097,-161.8777C489.2097,-159.0271 489.2097,-157 489.2097,-157 489.2097,-157 61,-157 61,-157 61,-157 61,-132.2396 61,-132.2396"/>
<polygon fill="#000000" stroke="#000000" points="64.5001,-132.2396 61,-122.2396 57.5001,-132.2396 64.5001,-132.2396"/>
</g>
<!-- SnotifyService -->
<g id="node5" class="node">
<title>SnotifyService</title>
<ellipse fill="#fdb462" stroke="#000000" cx="385" cy="-180" rx="68.3555" ry="18"/>
<text text-anchor="middle" x="385" y="-175.8" font-family="Times,serif" font-size="14.00" fill="#000000">SnotifyService</text>
</g>
<!-- SnotifyService&#45;&gt;AppModule -->
<g id="edge4" class="edge">
<title>SnotifyService&#45;&gt;AppModule</title>
<path fill="none" stroke="#000000" d="M385,-198.1061C385,-217.3391 385,-245 385,-245 385,-245 475.1633,-245 475.1633,-245"/>
<polygon fill="#000000" stroke="#000000" points="475.1634,-248.5001 485.1633,-245 475.1633,-241.5001 475.1634,-248.5001"/>
</g>
<!-- SnotifyComponent -->
<g id="node6" class="node">
<title>SnotifyComponent</title>
<polygon fill="#ffffb3" stroke="#000000" points="1111.0576,-122 988.9424,-122 988.9424,-86 1111.0576,-86 1111.0576,-122"/>
<text text-anchor="middle" x="1050" y="-99.8" font-family="Times,serif" font-size="14.00" fill="#000000">SnotifyComponent</text>
</g>
<!-- SnotifyComponent&#45;&gt;SnotifyModule -->
<g id="edge5" class="edge">
<title>SnotifyComponent&#45;&gt;SnotifyModule</title>
<path fill="none" stroke="#000000" d="M1050,-122.4218C1050,-131.2791 1050,-140 1050,-140 1050,-140 564.7903,-140 564.7903,-140 564.7903,-140 564.7903,-151.8726 564.7903,-151.8726"/>
<polygon fill="#000000" stroke="#000000" points="561.2904,-151.8725 564.7903,-161.8726 568.2904,-151.8726 561.2904,-151.8725"/>
</g>
<!-- ToastComponent -->
<g id="node7" class="node">
<title>ToastComponent</title>
<polygon fill="#ffffb3" stroke="#000000" points="971.4356,-122 858.5644,-122 858.5644,-86 971.4356,-86 971.4356,-122"/>
<text text-anchor="middle" x="915" y="-99.8" font-family="Times,serif" font-size="14.00" fill="#000000">ToastComponent</text>
</g>
<!-- ToastComponent&#45;&gt;SnotifyModule -->
<g id="edge6" class="edge">
<title>ToastComponent&#45;&gt;SnotifyModule</title>
<path fill="none" stroke="#000000" d="M915,-122.1432C915,-128.4611 915,-134 915,-134 915,-134 552.1936,-134 552.1936,-134 552.1936,-134 552.1936,-151.8196 552.1936,-151.8196"/>
<polygon fill="#000000" stroke="#000000" points="548.6936,-151.8195 552.1936,-161.8196 555.6936,-151.8196 548.6936,-151.8195"/>
</g>
<!-- TruncatePipe -->
<g id="node8" class="node">
<title>TruncatePipe</title>
<polygon fill="#ffffb3" stroke="#000000" points="840.1361,-122 749.8639,-122 749.8639,-86 840.1361,-86 840.1361,-122"/>
<text text-anchor="middle" x="795" y="-99.8" font-family="Times,serif" font-size="14.00" fill="#000000">TruncatePipe</text>
</g>
<!-- TruncatePipe&#45;&gt;SnotifyModule -->
<g id="edge7" class="edge">
<title>TruncatePipe&#45;&gt;SnotifyModule</title>
<path fill="none" stroke="#000000" d="M795,-122.1903C795,-125.5376 795,-128 795,-128 795,-128 539.5968,-128 539.5968,-128 539.5968,-128 539.5968,-151.8129 539.5968,-151.8129"/>
<polygon fill="#000000" stroke="#000000" points="536.0969,-151.8129 539.5968,-161.8129 543.0969,-151.813 536.0969,-151.8129"/>
</g>
<!-- ButtonsComponent -->
<g id="node9" class="node">
<title>ButtonsComponent</title>
<polygon fill="#ffffb3" stroke="#000000" points="731.3948,-122 606.6052,-122 606.6052,-86 731.3948,-86 731.3948,-122"/>
<text text-anchor="middle" x="669" y="-99.8" font-family="Times,serif" font-size="14.00" fill="#000000">ButtonsComponent</text>
</g>
<!-- ButtonsComponent&#45;&gt;SnotifyModule -->
<g id="edge8" class="edge">
<title>ButtonsComponent&#45;&gt;SnotifyModule</title>
<path fill="none" stroke="#000000" d="M606.3764,-104C599.4182,-104 594.7795,-104 594.7795,-104 594.7795,-104 594.7795,-180 594.7795,-180 594.7795,-180 587.3246,-180 587.3246,-180"/>
<polygon fill="#000000" stroke="#000000" points="587.3246,-176.5001 577.3246,-180 587.3245,-183.5001 587.3246,-176.5001"/>
</g>
<!-- PromptComponent -->
<g id="node10" class="node">
<title>PromptComponent</title>
<polygon fill="#ffffb3" stroke="#000000" points="588.0576,-122 465.9424,-122 465.9424,-86 588.0576,-86 588.0576,-122"/>
<text text-anchor="middle" x="527" y="-99.8" font-family="Times,serif" font-size="14.00" fill="#000000">PromptComponent</text>
</g>
<!-- PromptComponent&#45;&gt;SnotifyModule -->
<g id="edge9" class="edge">
<title>PromptComponent&#45;&gt;SnotifyModule</title>
<path fill="none" stroke="#000000" d="M527,-122.0109C527,-122.0109 527,-151.855 527,-151.855"/>
<polygon fill="#000000" stroke="#000000" points="523.5001,-151.8549 527,-161.855 530.5001,-151.855 523.5001,-151.8549"/>
</g>
<!-- KeysPipe -->
<g id="node11" class="node">
<title>KeysPipe</title>
<polygon fill="#ffffb3" stroke="#000000" points="447.6545,-122 378.3455,-122 378.3455,-86 447.6545,-86 447.6545,-122"/>
<text text-anchor="middle" x="413" y="-99.8" font-family="Times,serif" font-size="14.00" fill="#000000">KeysPipe</text>
</g>
<!-- KeysPipe&#45;&gt;SnotifyModule -->
<g id="edge10" class="edge">
<title>KeysPipe&#45;&gt;SnotifyModule</title>
<path fill="none" stroke="#000000" d="M447.8219,-104C454.5602,-104 459.5747,-104 459.5747,-104 459.5747,-104 459.5747,-180 459.5747,-180 459.5747,-180 466.5889,-180 466.5889,-180"/>
<polygon fill="#000000" stroke="#000000" points="466.589,-183.5001 476.5889,-180 466.5889,-176.5001 466.589,-183.5001"/>
</g>
</g>
</svg>
