<?xml version="1.0" encoding="UTF-8" standalone="no"?>
<!DOCTYPE svg PUBLIC "-//W3C//DTD SVG 1.1//EN"
 "http://www.w3.org/Graphics/SVG/1.1/DTD/svg11.dtd">
<!-- Generated by graphviz version 2.40.1 (20161225.0304)
 -->
<!-- Title: dependencies Pages: 1 -->
<svg width="789pt" height="284pt"
 viewBox="0.00 0.00 789.00 284.00" xmlns="http://www.w3.org/2000/svg" xmlns:xlink="http://www.w3.org/1999/xlink">
<g id="graph0" class="graph" transform="scale(1 1) rotate(0) translate(4 280)">
<title>dependencies</title>
<polygon fill="#ffffff" stroke="transparent" points="-4,4 -4,-280 785,-280 785,4 -4,4"/>
<text text-anchor="start" x="369.5091" y="-42.4" font-family="sans-serif" font-weight="bold" font-size="14.00" fill="#000000">Legend</text>
<polygon fill="#ffffb3" stroke="transparent" points="156.5,-10 156.5,-30 176.5,-30 176.5,-10 156.5,-10"/>
<text text-anchor="start" x="180.129" y="-15.4" font-family="sans-serif" font-size="14.00" fill="#000000"> &#160;Declarations</text>
<polygon fill="#8dd3c7" stroke="transparent" points="269.5,-10 269.5,-30 289.5,-30 289.5,-10 269.5,-10"/>
<text text-anchor="start" x="293.2251" y="-15.4" font-family="sans-serif" font-size="14.00" fill="#000000"> &#160;Module</text>
<polygon fill="#80b1d3" stroke="transparent" points="355.5,-10 355.5,-30 375.5,-30 375.5,-10 355.5,-10"/>
<text text-anchor="start" x="379.2812" y="-15.4" font-family="sans-serif" font-size="14.00" fill="#000000"> &#160;Bootstrap</text>
<polygon fill="#fdb462" stroke="transparent" points="452.5,-10 452.5,-30 472.5,-30 472.5,-10 452.5,-10"/>
<text text-anchor="start" x="476.1732" y="-15.4" font-family="sans-serif" font-size="14.00" fill="#000000"> &#160;Providers</text>
<polygon fill="#fb8072" stroke="transparent" points="548.5,-10 548.5,-30 568.5,-30 568.5,-10 548.5,-10"/>
<text text-anchor="start" x="572.2258" y="-15.4" font-family="sans-serif" font-size="14.00" fill="#000000"> &#160;Exports</text>
<g id="clust1" class="cluster">
<title>cluster_SnotifyModule</title>
<polygon fill="none" stroke="#000000" stroke-dasharray="1,5" points="8,-70 8,-268 773,-268 773,-70 8,-70"/>
</g>
<g id="clust2" class="cluster">
<title>cluster_SnotifyModule_declarations</title>
<polygon fill="none" stroke="#000000" points="16,-78 16,-130 765,-130 765,-78 16,-78"/>
</g>
<g id="clust10" class="cluster">
<title>cluster_SnotifyModule_exports</title>
<polygon fill="none" stroke="#000000" points="231,-208 231,-260 577,-260 577,-208 231,-208"/>
</g>
<!-- SnotifyComponent -->
<g id="node1" class="node">
<title>SnotifyComponent</title>
<polygon fill="#ffffb3" stroke="#000000" points="757.0576,-122 634.9424,-122 634.9424,-86 757.0576,-86 757.0576,-122"/>
<text text-anchor="middle" x="696" y="-99.8" font-family="Times,serif" font-size="14.00" fill="#000000">SnotifyComponent</text>
</g>
<!-- SnotifyModule -->
<g id="node7" class="node">
<title>SnotifyModule</title>
<polygon fill="#8dd3c7" stroke="#000000" points="428.2745,-187 425.2745,-191 404.2745,-191 401.2745,-187 327.7255,-187 327.7255,-151 428.2745,-151 428.2745,-187"/>
<text text-anchor="middle" x="378" y="-164.8" font-family="Times,serif" font-size="14.00" fill="#000000">SnotifyModule</text>
</g>
<!-- SnotifyComponent&#45;&gt;SnotifyModule -->
<g id="edge1" class="edge">
<title>SnotifyComponent&#45;&gt;SnotifyModule</title>
<path fill="none" stroke="#000000" d="M696,-122.1061C696,-141.3391 696,-169 696,-169 696,-169 438.388,-169 438.388,-169"/>
<polygon fill="#000000" stroke="#000000" points="438.3881,-165.5001 428.388,-169 438.388,-172.5001 438.3881,-165.5001"/>
</g>
<!-- ToastComponent -->
<g id="node2" class="node">
<title>ToastComponent</title>
<polygon fill="#ffffb3" stroke="#000000" points="617.4356,-122 504.5644,-122 504.5644,-86 617.4356,-86 617.4356,-122"/>
<text text-anchor="middle" x="561" y="-99.8" font-family="Times,serif" font-size="14.00" fill="#000000">ToastComponent</text>
</g>
<!-- ToastComponent&#45;&gt;SnotifyModule -->
<g id="edge2" class="edge">
<title>ToastComponent&#45;&gt;SnotifyModule</title>
<path fill="none" stroke="#000000" d="M536.9055,-122.027C536.9055,-138.3976 536.9055,-160 536.9055,-160 536.9055,-160 438.2787,-160 438.2787,-160"/>
<polygon fill="#000000" stroke="#000000" points="438.2787,-156.5001 428.2787,-160 438.2787,-163.5001 438.2787,-156.5001"/>
</g>
<!-- TruncatePipe -->
<g id="node3" class="node">
<title>TruncatePipe</title>
<polygon fill="#ffffb3" stroke="#000000" points="486.1361,-122 395.8639,-122 395.8639,-86 486.1361,-86 486.1361,-122"/>
<text text-anchor="middle" x="441" y="-99.8" font-family="Times,serif" font-size="14.00" fill="#000000">TruncatePipe</text>
</g>
<!-- TruncatePipe&#45;&gt;SnotifyModule -->
<g id="edge3" class="edge">
<title>TruncatePipe&#45;&gt;SnotifyModule</title>
<path fill="none" stroke="#000000" d="M412.0347,-122.1061C412.0347,-122.1061 412.0347,-140.991 412.0347,-140.991"/>
<polygon fill="#000000" stroke="#000000" points="408.5348,-140.9909 412.0347,-150.991 415.5348,-140.991 408.5348,-140.9909"/>
</g>
<!-- ButtonsComponent -->
<g id="node4" class="node">
<title>ButtonsComponent</title>
<polygon fill="#ffffb3" stroke="#000000" points="377.3948,-122 252.6052,-122 252.6052,-86 377.3948,-86 377.3948,-122"/>
<text text-anchor="middle" x="315" y="-99.8" font-family="Times,serif" font-size="14.00" fill="#000000">ButtonsComponent</text>
</g>
<!-- ButtonsComponent&#45;&gt;SnotifyModule -->
<g id="edge4" class="edge">
<title>ButtonsComponent&#45;&gt;SnotifyModule</title>
<path fill="none" stroke="#000000" d="M352.5302,-122.1061C352.5302,-122.1061 352.5302,-140.991 352.5302,-140.991"/>
<polygon fill="#000000" stroke="#000000" points="349.0302,-140.9909 352.5302,-150.991 356.0302,-140.991 349.0302,-140.9909"/>
</g>
<!-- PromptComponent -->
<g id="node5" class="node">
<title>PromptComponent</title>
<polygon fill="#ffffb3" stroke="#000000" points="234.0576,-122 111.9424,-122 111.9424,-86 234.0576,-86 234.0576,-122"/>
<text text-anchor="middle" x="173" y="-99.8" font-family="Times,serif" font-size="14.00" fill="#000000">PromptComponent</text>
</g>
<!-- PromptComponent&#45;&gt;SnotifyModule -->
<g id="edge5" class="edge">
<title>PromptComponent&#45;&gt;SnotifyModule</title>
<path fill="none" stroke="#000000" d="M173,-122.027C173,-138.3976 173,-160 173,-160 173,-160 317.5888,-160 317.5888,-160"/>
<polygon fill="#000000" stroke="#000000" points="317.5888,-163.5001 327.5888,-160 317.5888,-156.5001 317.5888,-163.5001"/>
</g>
<!-- KeysPipe -->
<g id="node6" class="node">
<title>KeysPipe</title>
<polygon fill="#ffffb3" stroke="#000000" points="93.6545,-122 24.3455,-122 24.3455,-86 93.6545,-86 93.6545,-122"/>
<text text-anchor="middle" x="59" y="-99.8" font-family="Times,serif" font-size="14.00" fill="#000000">KeysPipe</text>
</g>
<!-- KeysPipe&#45;&gt;SnotifyModule -->
<g id="edge6" class="edge">
<title>KeysPipe&#45;&gt;SnotifyModule</title>
<path fill="none" stroke="#000000" d="M59,-122.1061C59,-141.3391 59,-169 59,-169 59,-169 317.4535,-169 317.4535,-169"/>
<polygon fill="#000000" stroke="#000000" points="317.4535,-172.5001 327.4535,-169 317.4535,-165.5001 317.4535,-172.5001"/>
</g>
<!-- SnotifyComponent  -->
<g id="node8" class="node">
<title>SnotifyComponent </title>
<polygon fill="#fb8072" stroke="#000000" points="569.0568,-252 442.9432,-252 442.9432,-216 569.0568,-216 569.0568,-252"/>
<text text-anchor="middle" x="506" y="-229.8" font-family="Times,serif" font-size="14.00" fill="#000000">SnotifyComponent </text>
</g>
<!-- SnotifyModule&#45;&gt;SnotifyComponent  -->
<g id="edge7" class="edge">
<title>SnotifyModule&#45;&gt;SnotifyComponent </title>
<path fill="none" stroke="#000000" stroke-dasharray="5,2" d="M428.4016,-178C447.4627,-178 464.6447,-178 464.6447,-178 464.6447,-178 464.6447,-205.973 464.6447,-205.973"/>
<polygon fill="#000000" stroke="#000000" points="461.1447,-205.973 464.6447,-215.973 468.1447,-205.973 461.1447,-205.973"/>
</g>
<!-- TruncatePipe  -->
<g id="node9" class="node">
<title>TruncatePipe </title>
<polygon fill="#fb8072" stroke="#000000" points="425.1355,-252 330.8645,-252 330.8645,-216 425.1355,-216 425.1355,-252"/>
<text text-anchor="middle" x="378" y="-229.8" font-family="Times,serif" font-size="14.00" fill="#000000">TruncatePipe </text>
</g>
<!-- SnotifyModule&#45;&gt;TruncatePipe  -->
<g id="edge8" class="edge">
<title>SnotifyModule&#45;&gt;TruncatePipe </title>
<path fill="none" stroke="#000000" stroke-dasharray="5,2" d="M378,-187.1061C378,-187.1061 378,-205.991 378,-205.991"/>
<polygon fill="#000000" stroke="#000000" points="374.5001,-205.9909 378,-215.991 381.5001,-205.991 374.5001,-205.9909"/>
</g>
<!-- KeysPipe  -->
<g id="node10" class="node">
<title>KeysPipe </title>
<polygon fill="#fb8072" stroke="#000000" points="312.6538,-252 239.3462,-252 239.3462,-216 312.6538,-216 312.6538,-252"/>
<text text-anchor="middle" x="276" y="-229.8" font-family="Times,serif" font-size="14.00" fill="#000000">KeysPipe </text>
</g>
<!-- SnotifyModule&#45;&gt;KeysPipe  -->
<g id="edge9" class="edge">
<title>SnotifyModule&#45;&gt;KeysPipe </title>
<path fill="none" stroke="#000000" stroke-dasharray="5,2" d="M327.4878,-178C304.596,-178 282.5647,-178 282.5647,-178 282.5647,-178 282.5647,-205.973 282.5647,-205.973"/>
<polygon fill="#000000" stroke="#000000" points="279.0648,-205.973 282.5647,-215.973 286.0648,-205.973 279.0648,-205.973"/>
</g>
</g>
</svg>
